<svg width="32" height="32" viewBox="0 0 32 32" fill="none" xmlns="http://www.w3.org/2000/svg">
<g clip-path="url(#clip0_3_6)">
<rect width="32" height="32" rx="4" fill="white"/>
<path d="M9.894 8.097C9.894 8.277 9.855 8.412 9.777 8.502C9.705 8.592 9.585 8.637 9.417 8.637C9.405 8.763 9.378 8.982 9.336 9.294C9.276 9.714 9.243 9.948 9.237 9.996C8.703 13.974 7.59 15.963 5.898 15.963C5.4 15.963 5.01 15.822 4.728 15.54C4.452 15.258 4.314 14.904 4.314 14.478C4.314 13.716 4.638 13.044 5.286 12.462C5.934 11.874 6.786 11.388 7.842 11.004C7.908 10.578 7.959 10.197 7.995 9.861L8.157 8.502C7.797 8.466 7.461 8.448 7.149 8.448C6.315 8.448 5.7 8.529 5.304 8.691C4.908 8.853 4.71 9.117 4.71 9.483C4.71 9.663 4.77 9.858 4.89 10.068C4.926 10.128 4.944 10.191 4.944 10.257C4.944 10.383 4.878 10.497 4.746 10.599C4.62 10.695 4.482 10.743 4.332 10.743C4.14 10.743 3.993 10.662 3.891 10.5C3.723 10.224 3.639 9.903 3.639 9.537C3.639 8.097 4.899 7.377 7.419 7.377C8.151 7.377 8.805 7.449 9.381 7.593C9.723 7.677 9.894 7.845 9.894 8.097ZM6.015 15C6.309 15 6.603 14.778 6.897 14.334C7.191 13.89 7.449 13.113 7.671 12.003C6.207 12.645 5.475 13.431 5.475 14.361C5.475 14.565 5.523 14.724 5.619 14.838C5.715 14.946 5.847 15 6.015 15ZM10.6386 15.045C10.2666 15.045 9.96961 14.91 9.74761 14.64C9.52561 14.37 9.41461 14.016 9.41461 13.578C9.41461 13.098 9.52561 12.645 9.74761 12.219C9.96961 11.787 10.2636 11.442 10.6296 11.184C11.0016 10.92 11.3946 10.788 11.8086 10.788C11.9406 10.788 12.0276 10.815 12.0696 10.869C12.1176 10.917 12.1566 11.007 12.1866 11.139C12.3126 11.115 12.4446 11.103 12.5826 11.103C12.8766 11.103 13.0236 11.208 13.0236 11.418C13.0236 11.544 12.9786 11.844 12.8886 12.318C12.7506 13.008 12.6816 13.488 12.6816 13.758C12.6816 13.848 12.7026 13.92 12.7446 13.974C12.7926 14.028 12.8526 14.055 12.9246 14.055C13.0386 14.055 13.1766 13.983 13.3386 13.839C13.5006 13.689 13.7196 13.449 13.9956 13.119C14.0676 13.035 14.1486 12.993 14.2386 12.993C14.3166 12.993 14.3766 13.029 14.4186 13.101C14.4666 13.173 14.4906 13.272 14.4906 13.398C14.4906 13.638 14.4336 13.824 14.3196 13.956C14.0736 14.262 13.8126 14.52 13.5366 14.73C13.2606 14.94 12.9936 15.045 12.7356 15.045C12.5376 15.045 12.3546 14.979 12.1866 14.847C12.0246 14.709 11.9016 14.523 11.8176 14.289C11.5056 14.793 11.1126 15.045 10.6386 15.045ZM10.9626 14.136C11.0946 14.136 11.2206 14.058 11.3406 13.902C11.4606 13.746 11.5476 13.539 11.6016 13.281L11.9346 11.625C11.6826 11.631 11.4486 11.727 11.2326 11.913C11.0226 12.093 10.8546 12.333 10.7286 12.633C10.6026 12.933 10.5396 13.251 10.5396 13.587C10.5396 13.773 10.5756 13.911 10.6476 14.001C10.7256 14.091 10.8306 14.136 10.9626 14.136ZM15.4781 15.045C14.8901 15.045 14.4311 14.88 14.1011 14.55C13.7771 14.214 13.6151 13.773 13.6151 13.227C13.6151 12.741 13.7111 12.315 13.9031 11.949C14.0951 11.583 14.3441 11.301 14.6501 11.103C14.9561 10.905 15.2771 10.806 15.6131 10.806C15.9431 10.806 16.1981 10.905 16.3781 11.103C16.5641 11.295 16.6571 11.544 16.6571 11.85C16.6571 12.102 16.6001 12.315 16.4861 12.489C16.3781 12.663 16.2341 12.75 16.0541 12.75C15.9401 12.75 15.8471 12.723 15.7751 12.669C15.7091 12.615 15.6761 12.54 15.6761 12.444C15.6761 12.402 15.6821 12.354 15.6941 12.3C15.7061 12.246 15.7151 12.207 15.7211 12.183C15.7511 12.093 15.7661 12.009 15.7661 11.931C15.7661 11.853 15.7451 11.793 15.7031 11.751C15.6671 11.709 15.6131 11.688 15.5411 11.688C15.4031 11.688 15.2741 11.751 15.1541 11.877C15.0341 11.997 14.9381 12.162 14.8661 12.372C14.7941 12.582 14.7581 12.813 14.7581 13.065C14.7581 13.761 15.0611 14.109 15.6671 14.109C15.9131 14.109 16.1771 14.028 16.4591 13.866C16.7471 13.698 17.0291 13.449 17.3051 13.119C17.3771 13.035 17.4581 12.993 17.5481 12.993C17.6261 12.993 17.6861 13.029 17.7281 13.101C17.7761 13.173 17.8001 13.272 17.8001 13.398C17.8001 13.626 17.7431 13.812 17.6291 13.956C17.3471 14.304 17.0081 14.574 16.6121 14.766C16.2221 14.952 15.8441 15.045 15.4781 15.045ZM22.2746 12.993C22.3526 12.993 22.4126 13.029 22.4546 13.101C22.5026 13.173 22.5266 13.272 22.5266 13.398C22.5266 13.638 22.4696 13.824 22.3556 13.956C22.0856 14.286 21.8126 14.55 21.5366 14.748C21.2606 14.946 20.9336 15.045 20.5556 15.045C20.0936 15.045 19.7216 14.913 19.4396 14.649C19.1576 14.385 19.0166 14.034 19.0166 13.596C19.0166 13.362 19.1366 13.194 19.3766 13.092C19.6406 12.978 19.8296 12.858 19.9436 12.732C20.0576 12.6 20.1146 12.441 20.1146 12.255C20.1146 12.147 20.0906 12.066 20.0426 12.012C20.0006 11.958 19.9466 11.931 19.8806 11.931C19.7186 11.931 19.5386 12.048 19.3406 12.282C19.1486 12.516 18.9686 12.819 18.8006 13.191C18.6326 13.557 18.5006 13.935 18.4046 14.325C18.3386 14.607 18.2606 14.799 18.1706 14.901C18.0866 14.997 17.9516 15.045 17.7656 15.045C17.5796 15.045 17.4416 14.979 17.3516 14.847C17.2676 14.709 17.2106 14.499 17.1806 14.217C17.1506 13.935 17.1356 13.521 17.1356 12.975C17.1356 12.051 17.2286 11.088 17.4146 10.086C17.6066 9.084 17.8856 8.244 18.2516 7.566C18.6236 6.882 19.0676 6.54 19.5836 6.54C19.8596 6.54 20.0816 6.66 20.2496 6.9C20.4236 7.134 20.5106 7.44 20.5106 7.818C20.5106 8.424 20.3336 9.054 19.9796 9.708C19.6256 10.356 19.0496 11.115 18.2516 11.985C18.2336 12.297 18.2246 12.618 18.2246 12.948C18.5126 12.198 18.8426 11.655 19.2146 11.319C19.5866 10.977 19.9346 10.806 20.2586 10.806C20.5586 10.806 20.7986 10.908 20.9786 11.112C21.1646 11.316 21.2576 11.568 21.2576 11.868C21.2576 12.198 21.1736 12.501 21.0056 12.777C20.8376 13.053 20.5496 13.299 20.1416 13.515C20.1656 13.677 20.2376 13.809 20.3576 13.911C20.4836 14.007 20.6336 14.055 20.8076 14.055C20.9936 14.055 21.1736 13.983 21.3476 13.839C21.5216 13.695 21.7496 13.455 22.0316 13.119C22.1036 13.035 22.1846 12.993 22.2746 12.993ZM19.3946 7.431C19.2866 7.431 19.1666 7.587 19.0346 7.899C18.9026 8.205 18.7736 8.622 18.6476 9.15C18.5276 9.672 18.4286 10.242 18.3506 10.86C18.7226 10.422 19.0286 9.945 19.2686 9.429C19.5146 8.913 19.6376 8.445 19.6376 8.025C19.6376 7.833 19.6166 7.686 19.5746 7.584C19.5326 7.482 19.4726 7.431 19.3946 7.431ZM25.8151 12.993C25.8931 12.993 25.9531 13.029 25.9951 13.101C26.0431 13.173 26.0671 13.272 26.0671 13.398C26.0671 13.638 26.0101 13.824 25.8961 13.956C25.6741 14.226 25.3591 14.475 24.9511 14.703C24.5491 14.931 24.1171 15.045 23.6551 15.045C23.0251 15.045 22.5361 14.874 22.1881 14.532C21.8401 14.19 21.6661 13.722 21.6661 13.128C21.6661 12.714 21.7531 12.33 21.9271 11.976C22.1011 11.616 22.3411 11.331 22.6471 11.121C22.9591 10.911 23.3101 10.806 23.7001 10.806C24.0481 10.806 24.3271 10.911 24.5371 11.121C24.7471 11.325 24.8521 11.604 24.8521 11.958C24.8521 12.372 24.7021 12.729 24.4021 13.029C24.1081 13.323 23.6071 13.557 22.8991 13.731C23.0491 14.007 23.3341 14.145 23.7541 14.145C24.0241 14.145 24.3301 14.052 24.6721 13.866C25.0201 13.674 25.3201 13.425 25.5721 13.119C25.6441 13.035 25.7251 12.993 25.8151 12.993ZM23.5471 11.688C23.3251 11.688 23.1361 11.817 22.9801 12.075C22.8301 12.333 22.7551 12.645 22.7551 13.011V13.029C23.1091 12.945 23.3881 12.819 23.5921 12.651C23.7961 12.483 23.8981 12.288 23.8981 12.066C23.8981 11.952 23.8651 11.862 23.7991 11.796C23.7391 11.724 23.6551 11.688 23.5471 11.688ZM28.4843 10.806C28.6223 10.806 28.7183 10.824 28.7723 10.86C28.8263 10.896 28.8533 10.956 28.8533 11.04C28.8533 11.184 28.7753 11.697 28.6193 12.579C28.4813 13.425 28.4003 13.926 28.3763 14.082C28.1543 15.624 27.8483 16.845 27.4583 17.745C27.0683 18.645 26.5493 19.095 25.9013 19.095C25.5953 19.095 25.3463 18.999 25.1543 18.807C24.9623 18.621 24.8663 18.375 24.8663 18.069C24.8663 17.787 24.9293 17.499 25.0553 17.205C25.1873 16.911 25.4273 16.572 25.7753 16.188C26.1293 15.81 26.6273 15.375 27.2693 14.883L27.2963 14.676C27.3383 14.454 27.3863 14.136 27.4403 13.722C27.3203 14.154 27.1523 14.484 26.9363 14.712C26.7203 14.934 26.4923 15.045 26.2523 15.045C25.9823 15.045 25.7603 14.922 25.5863 14.676C25.4183 14.424 25.3343 14.112 25.3343 13.74C25.3343 13.29 25.3643 12.879 25.4243 12.507C25.4843 12.129 25.5833 11.73 25.7213 11.31C25.7813 11.13 25.8653 11.001 25.9733 10.923C26.0813 10.845 26.2523 10.806 26.4863 10.806C26.6183 10.806 26.7083 10.827 26.7563 10.869C26.8103 10.911 26.8373 10.974 26.8373 11.058C26.8373 11.106 26.8043 11.268 26.7383 11.544C26.6783 11.766 26.6303 11.967 26.5943 12.147C26.5463 12.393 26.5043 12.63 26.4683 12.858C26.4323 13.08 26.4143 13.263 26.4143 13.407C26.4143 13.635 26.4773 13.749 26.6033 13.749C26.6933 13.749 26.8043 13.659 26.9363 13.479C27.0743 13.299 27.2183 13.026 27.3683 12.66C27.5243 12.294 27.6743 11.844 27.8183 11.31C27.8663 11.13 27.9383 11.001 28.0343 10.923C28.1363 10.845 28.2863 10.806 28.4843 10.806ZM26.0003 18.222C26.1503 18.222 26.3183 18.048 26.5043 17.7C26.6903 17.352 26.8763 16.773 27.0623 15.963C26.6003 16.353 26.2643 16.707 26.0543 17.025C25.8503 17.349 25.7483 17.631 25.7483 17.871C25.7483 17.973 25.7663 18.057 25.8023 18.123C25.8443 18.189 25.9103 18.222 26.0003 18.222Z" fill="black"/>
<path d="M11.156 25.035C10.8853 25.035 10.5797 25.0117 10.239 24.965C10.0523 24.9417 9.924 24.8927 9.854 24.818C9.784 24.7433 9.75367 24.622 9.763 24.454C9.79567 23.992 9.87267 23.4227 9.994 22.746C10.1153 22.0647 10.2623 21.409 10.435 20.779C10.4677 20.6623 10.533 20.5807 10.631 20.534C10.729 20.4873 10.8573 20.464 11.016 20.464C11.3007 20.464 11.443 20.5433 11.443 20.702C11.443 20.7673 11.429 20.842 11.401 20.926C11.2797 21.2993 11.1583 21.801 11.037 22.431C10.9157 23.0563 10.8293 23.6537 10.778 24.223C10.918 24.237 11.0767 24.244 11.254 24.244C12.0707 24.244 12.6797 23.9967 13.081 23.502C13.487 23.0073 13.69 22.347 13.69 21.521C13.69 20.9657 13.5313 20.5363 13.214 20.233C12.8967 19.9297 12.4487 19.778 11.87 19.778C11.4967 19.778 11.1257 19.8363 10.757 19.953C10.393 20.0697 10.064 20.2237 9.77 20.415C9.70933 20.457 9.644 20.478 9.574 20.478C9.49467 20.478 9.43167 20.4453 9.385 20.38C9.33833 20.31 9.315 20.226 9.315 20.128C9.315 20.016 9.33367 19.925 9.371 19.855C9.40833 19.7803 9.47133 19.7127 9.56 19.652C9.882 19.4327 10.26 19.267 10.694 19.155C11.128 19.0383 11.5457 18.98 11.947 18.98C12.5163 18.98 13.0087 19.0803 13.424 19.281C13.8393 19.477 14.159 19.7663 14.383 20.149C14.607 20.5317 14.719 20.9937 14.719 21.535C14.719 22.2397 14.579 22.8557 14.299 23.383C14.019 23.9057 13.6107 24.3117 13.074 24.601C12.5373 24.8903 11.898 25.035 11.156 25.035ZM18.7576 22.851C18.8182 22.851 18.8649 22.8813 18.8976 22.942C18.9302 23.0027 18.9466 23.0797 18.9466 23.173C18.9466 23.397 18.8789 23.53 18.7436 23.572C18.4636 23.67 18.1556 23.726 17.8196 23.74C17.7309 24.132 17.5559 24.447 17.2946 24.685C17.0332 24.9183 16.7369 25.035 16.4056 25.035C16.1256 25.035 15.8852 24.9673 15.6846 24.832C15.4886 24.6967 15.3392 24.517 15.2366 24.293C15.1339 24.069 15.0826 23.8263 15.0826 23.565C15.0826 23.2103 15.1502 22.8953 15.2856 22.62C15.4209 22.34 15.6076 22.123 15.8456 21.969C16.0836 21.8103 16.3472 21.731 16.6366 21.731C16.9912 21.731 17.2759 21.8547 17.4906 22.102C17.7099 22.3447 17.8382 22.6457 17.8756 23.005C18.0949 22.991 18.3562 22.9443 18.6596 22.865C18.6969 22.8557 18.7296 22.851 18.7576 22.851ZM16.4616 24.293C16.6109 24.293 16.7392 24.2323 16.8466 24.111C16.9586 23.9897 17.0332 23.8147 17.0706 23.586C16.9259 23.488 16.8139 23.3597 16.7346 23.201C16.6599 23.0423 16.6226 22.8743 16.6226 22.697C16.6226 22.6223 16.6296 22.5477 16.6436 22.473H16.6086C16.4219 22.473 16.2656 22.564 16.1396 22.746C16.0182 22.9233 15.9576 23.1753 15.9576 23.502C15.9576 23.7587 16.0066 23.9547 16.1046 24.09C16.2072 24.2253 16.3262 24.293 16.4616 24.293ZM19.0738 25.035C18.8544 25.035 18.6771 24.9463 18.5418 24.769C18.4111 24.587 18.3458 24.3373 18.3458 24.02C18.3458 23.67 18.3691 23.3503 18.4158 23.061C18.4624 22.767 18.5394 22.4567 18.6468 22.13C18.6934 21.99 18.7588 21.8897 18.8428 21.829C18.9268 21.7683 19.0598 21.738 19.2418 21.738C19.3444 21.738 19.4144 21.7543 19.4518 21.787C19.4938 21.8197 19.5148 21.8687 19.5148 21.934C19.5148 21.9713 19.4891 22.0973 19.4378 22.312C19.3911 22.4847 19.3538 22.641 19.3258 22.781C19.2324 23.271 19.1858 23.5977 19.1858 23.761C19.1858 23.859 19.1974 23.929 19.2208 23.971C19.2441 24.0083 19.2814 24.027 19.3328 24.027C19.4028 24.027 19.4914 23.957 19.5988 23.817C19.7061 23.6723 19.8181 23.4577 19.9348 23.173C20.0561 22.8837 20.1704 22.536 20.2778 22.13C20.3151 21.99 20.3711 21.8897 20.4458 21.829C20.5251 21.7683 20.6418 21.738 20.7958 21.738C20.8984 21.738 20.9708 21.766 21.0128 21.822C21.0594 21.8733 21.0828 21.9527 21.0828 22.06C21.0828 22.1767 21.0734 22.3073 21.0548 22.452C21.0361 22.592 21.0151 22.7367 20.9918 22.886C20.9451 23.1847 20.9078 23.4577 20.8798 23.705C20.8518 23.9477 20.8378 24.2253 20.8378 24.538C20.8378 24.7153 20.8004 24.8437 20.7258 24.923C20.6558 24.9977 20.5391 25.035 20.3758 25.035C20.2031 25.035 20.0818 24.9907 20.0118 24.902C19.9464 24.8087 19.9138 24.6313 19.9138 24.37C19.9138 24.3187 19.9184 24.2043 19.9278 24.027C19.8484 24.3537 19.7294 24.6033 19.5708 24.776C19.4168 24.9487 19.2511 25.035 19.0738 25.035Z" fill="black" fill-opacity="0.85"/>
</g>
<defs>
<clipPath id="clip0_3_6">
<rect width="32" height="32" fill="white"/>
</clipPath>
</defs>
</svg>
